<svg xmlns="http://www.w3.org/2000/svg" width="454" height="216">
  <g fill="none" fill-rule="evenodd">
    <path fill="#000" d="M78.4499 11.375c-.274-.988-1.784-.137-2.442.192-.659.329-.549 1.235-.522 1.482.012.104-.026.173-.073.219l-13.769 3.525.194-.68s.768-.658.549-2.012c-.22-1.354.329-1.61.329-1.61 1.683-1.025 1.426-1.244 1.463-1.72.037-.475-.916-1.244-.843-1.683.074-.439 1.279-.219 2.523-.256 1.245-.037.363-.951.363-.951s-3.446-.549-6.044-3.879c-4.025-4.098-3.819-3.915-7.186-3.879-3.366.037-4.821 2.379-4.821 2.379s-.676 1.098-1.335 1.756c-.732.073-1.171-1.829-1.537-2.342-.366-.512-.219-.731-1.024.074-.805.805.366 4.244.439 5.634.073 1.391.585 1.903.585 1.903s-.439 2.049-.439 4.171c0 2.123.951 5.343.951 5.343s0 .366-3.073 1.683c-3.074 1.317-8.343 1.61-8.343 1.61l2.342 2.561s-32.565 7.977-33.59 8.709c-1.024.731-3.22 2.927-.805 8.489 2.415 5.561 10.685 22.393 10.977 23.125.293.731.586.365.952.365s.292-2.049 1.244-.365c.951 1.683 4.391 4.683 1.171 9.001-3.294 3.805-4.464 5.854-2.562 12.148 1.903 6.293 1.171 9.586 1.171 9.586l-.366 15.222s.22 21.661-.512 28.54c-.732 6.879-4.098 14.71-5.854 20.93-1.757 6.22-2.123 17.124-1.83 22.027.073 12.002-3.805 23.199-3.805 23.199l-.074.658-.439.293-1.317 6.001s-.512.146.805.146c2.854-.073 18.076 1.61 20.93 2.196 2.854.585 3.22.439 3.878-.805.659-1.245-1.829-2.123-2.049-2.489-.219-.366-9.586-4.025-12.44-5.342-2.854-1.317-2.269-4.098-2.269-4.098l.951-.219s-.292-.586-.292-1.244c0-.659.439-1.61.658-2.196.22-.585.073-.878.293-2.342 1.171-1.39 3.512-1.171 3.512-1.171l.22-1.902c.585-8.562 7.391-37.03 7.391-37.03s3.658-14.855 4.024-18.953c.365-4.098 5.377-24.187 6.621-33.773 1.244-9.587 5.741-28.87 5.741-28.87l5.152-25.394s4.304-16.758 7.341-21.807c3.037-5.05 6.798-6.696 8.079-7.209 1.281-.512 1.136-.475 1.136-1.207v-.767l15.132-3.861c.302-.023.809-.106 1.523-.339 1.427-.467 1.289-1.784 1.015-2.772"/>
    <path fill="#F77600" d="M112.234813 160.929795c0 1.761602-.146801 3.082802-1.174401 4.110403l-4.404003 4.257203c-.440401.4404-1.027601.880801-1.027601 1.321201 0 .4404.1468.880801.880801.880801h22.754015c.734001 0 .880801-.440401.880801-.880801 0-.4404-.587201-.880801-1.027601-1.321201l-4.404003-4.257203c-1.027601-1.027601-1.174401-2.348801-1.174401-4.110403V68.4457323h5.431604c.880801 0 1.321201.7340005 1.614801 1.6148011l7.633605 29.2132199c.1468.5872004.587201.8808007 1.174401.8808007s.734001-.2936003.734001-1.0276008V61.9865279c0-.2936002-.293601-.5872004-.734001-.5872004H96.3804017c-.4404003 0-.7340005.2936002-.7340005.5872004v37.1404253c0 .7340005.1468001 1.0276008.7340005 1.0276008s1.0276007-.2936003 1.1744008-.8808007l7.6336055-29.2132199c.2936-.8808006.734-1.6148011 1.614801-1.6148011h5.431604v92.4840627zm51.380035 1.468001c.1468 1.321201-.146801 2.348802-.734001 2.936002l-3.963603 3.963603c-.4404.4404-1.0276.880801-1.0276 1.321201 0 .4404.2936.880801 1.0276.880801h21.139215c.734 0 1.0276-.440401 1.0276-.880801 0-.4404-.4404-.880801-.8808-1.321201l-4.257203-3.816803c-1.027601-.8808-1.468001-2.495601-1.614801-3.963602l-13.94601-98.5028674c-.1468-.8808006-.5872-1.6148011-1.321201-1.6148011h-5.431603c-.734001 0-1.027601.5872004-1.174401 1.3212009l-13.358809 98.6496676c-.1468 1.321201-.2936 2.789202-1.174401 3.670002l-4.110403 4.110403c-.4404.4404-1.0276 1.027601-1.0276 1.468001 0 .4404.2936.880801.8808.880801h16.882012c.734 0 1.0276-.440401 1.0276-.880801 0-.4404-.8808-1.027601-1.468001-1.761601l-3.229602-3.376403c-.5872-.734-.8808-1.614801-.734-2.642401l2.202001-16.148011c.1468-.587201.4404-1.027601.880801-1.027601h10.863207c.734001 0 1.174401.5872 1.321201 1.321201l2.202002 15.41401zm-13.50561-24.515616c-.2936 0-.5872-.293601-.4404-.880801l4.844403-36.112825h.293601l5.138003 35.966025c.1468.5872-.1468 1.027601-.5872 1.027601h-9.248407zm34.351224 23.047615c0 1.761602-.1468 3.082802-1.174401 4.110403l-4.404003 4.257203c-.4404.4404-1.027601.880801-1.027601 1.321201 0 .4404.1468.880801.880801.880801h22.754015c.734001 0 .880801-.440401.880801-.880801 0-.4404-.5872-.880801-1.027601-1.321201l-4.404003-4.257203c-1.0276-1.027601-1.174401-2.348801-1.174401-4.110403V68.4457323h5.431604c.880801 0 1.321201.7340005 1.614801 1.6148011l7.633605 29.2132199c.1468.5872004.587201.8808007 1.174401.8808007.587201 0 .734001-.2936003.734001-1.0276008V61.9865279c0-.2936002-.2936-.5872004-.734001-.5872004h-43.012429c-.4404 0-.734001.2936002-.734001.5872004v37.1404253c0 .7340005.146801 1.0276008.734001 1.0276008s1.027601-.2936003 1.174401-.8808007l7.633605-29.2132199c.2936-.8808006.734-1.6148011 1.614801-1.6148011h5.431604v92.4840627zm38.168026 0c0 1.761602-.2936 3.082802-1.321201 4.110403l-4.404003 4.257203c-.2936.4404-1.027601.880801-1.027601 1.321201 0 .4404.2936.880801.880801.880801h23.047615c.587201 0 .880801-.440401.880801-.880801 0-.4404-.734-.880801-1.027601-1.321201l-4.404003-4.257203c-1.0276-1.027601-1.321201-2.348801-1.321201-4.110403V71.9689347c0-1.7616012.293601-3.0828021 1.321201-4.1104028l4.404003-4.2572029c.293601-.4404003 1.027601-.8808006 1.027601-1.3212009 0-.4404003-.2936-.8808006-.880801-.8808006h-23.047615c-.587201 0-.880801.4404003-.880801.8808006s.734001.8808006 1.027601 1.3212009l4.404003 4.2572029c1.027601 1.0276007 1.321201 2.3488016 1.321201 4.1104028v88.9608603zm41.984828 9.395207c.1468.734.440401 1.174401 1.174401 1.174401h5.138004c.8808 0 1.3212-.587201 1.468001-1.614802l11.597207-97.475266c.146801-1.6148011.734001-2.7892019 1.761602-3.8168026l4.844403-4.8444033c.5872-.5872004.880801-1.1744008.880801-1.7616012 0-.4404003-.440401-.5872004-1.321201-.5872004H270.48532c-.4404 0-1.0276.1468001-1.0276.5872004 0 .5872004.4404 1.1744008.8808 1.6148011l3.523203 3.5232024c1.1744 1.1744008 1.908401 2.6424018 1.761601 3.9636027l-6.165604 51.5268349h-.293601l-7.486805-51.5268349c-.1468-1.3212009.587201-2.936002 1.761602-3.9636027l3.816802-3.5232024c.4404-.4404003.734001-1.0276007.734001-1.6148011 0-.4404003-.440401-.5872004-.880801-.5872004h-22.754015c-.880801 0-1.321201.1468001-1.321201.5872004 0 .5872004.2936 1.1744008.8808 1.7616012l4.844403 4.8444033c1.027601 1.0276007 1.468002 2.2020015 1.761602 3.8168026l14.092809 97.915667zm35.966025-9.395207c0 1.761602-.2936 3.082802-1.321201 4.110403l-4.404003 4.257203c-.2936.4404-1.027601.880801-1.027601 1.321201 0 .4404.2936.880801.880801.880801h23.047616c.5872 0 .8808-.440401.8808-.880801 0-.4404-.734-.880801-1.027601-1.321201l-4.404003-4.257203c-1.0276-1.027601-1.321201-2.348801-1.321201-4.110403V71.9689347c0-1.7616012.293601-3.0828021 1.321201-4.1104028l4.404003-4.2572029c.293601-.4404003 1.027601-.8808006 1.027601-1.3212009 0-.4404003-.2936-.8808006-.8808-.8808006h-23.047616c-.587201 0-.880801.4404003-.880801.8808006s.734001.8808006 1.027601 1.3212009l4.404003 4.2572029c1.027601 1.0276007 1.321201 2.3488016 1.321201 4.1104028v88.9608603zm28.332419 0c0 1.761602-.2936 3.082802-1.321201 4.110403l-4.404003 4.257203c-.2936.5872-1.0276.880801-1.0276 1.321201 0 .4404.2936.880801.8808.880801h35.966025c1.1744 0 1.614801-.734001 1.614801-2.055202v-35.966024c0-.587201-.293601-1.027601-.734001-1.027601-.5872 0-.5872.4404-.8808 1.027601l-9.101607 28.479219c-.5872 1.761601-2.055201 2.202002-3.816802 2.202002h-5.872004V71.9689347c0-1.7616012.2936-3.0828021 1.321201-4.1104028l4.404003-4.2572029c.2936-.4404003 1.0276-.8808006 1.0276-1.3212009 0-.4404003-.2936-.8808006-.8808-.8808006h-23.047616c-.5872 0-.8808.4404003-.8808.8808006s.734.8808006 1.0276 1.3212009l4.404003 4.2572029c1.027601 1.0276007 1.321201 2.3488016 1.321201 4.1104028v88.9608603zm43.74643 0c0 1.761602-.2936 3.082802-1.321201 4.110403l-4.404003 4.257203c-.2936.5872-1.027601.880801-1.027601 1.321201 0 .4404.293601.880801.880801.880801h35.966024c1.174401 0 1.614801-.734001 1.614801-2.055202v-35.966024c0-.587201-.2936-1.027601-.734-1.027601-.5872 0-.5872.4404-.880801 1.027601l-9.101606 28.479219c-.5872 1.761601-2.055201 2.202002-3.816802 2.202002h-5.872004V71.9689347c0-1.7616012.2936-3.0828021 1.321201-4.1104028l4.404003-4.2572029c.2936-.4404003 1.0276-.8808006 1.0276-1.3212009 0-.4404003-.2936-.8808006-.8808-.8808006h-23.047616c-.5872 0-.880801.4404003-.880801.8808006s.734001.8808006 1.027601 1.3212009l4.404003 4.2572029c1.027601 1.0276007 1.321201 2.3488016 1.321201 4.1104028v88.9608603zm55.050037-92.1904625h8.367606c1.908401 0 3.229602.8808006 3.816803 2.7892019l7.927205 27.5984188c.1468.5872004.5872 1.0276008 1.174401 1.0276008.4404 0 .734-.2936003.734-.8808007V62.7205284c0-.7340005-.5872-1.3212009-1.1744-1.3212009h-38.021226c-.587201 0-.880801.4404003-.880801.8808006s.734001.8808006 1.027601 1.3212009l4.404003 4.2572029c1.0276 1.0276007 1.321201 2.3488016 1.321201 4.1104028v88.9608603c0 1.761602-.293601 3.082802-1.321201 4.110403l-4.404003 4.257203c-.2936.5872-1.027601.880801-1.027601 1.321201 0 .4404.2936.880801.880801.880801h38.021226c.734 0 1.1744-.587201 1.1744-1.321201v-36.846825c0-.440401-.2936-.880801-.734-.880801-.4404 0-.880801.2936-1.027601.880801l-7.927205 28.185619c-.587201 1.761601-2.055202 2.642402-3.963603 2.642402h-8.367606v-44.627231h3.229603c.734 0 1.3212.2936 1.614801 1.027601l4.991203 10.716407c.2936.587201.4404 1.027601 1.027601 1.027601.4404 0 .5872-.2936.5872-.734001v-31.121621c0-.5872003-.1468-.8808005-.5872-.8808005s-.587201.2936002-.880801.8808005l-5.138003 10.276007c-.293601.734001-.880801 1.027601-1.614801 1.027601h-3.229603V68.7393325z"/>
  </g>
</svg>
